<?xml version="1.0" standalone="no"?>
<!DOCTYPE svg PUBLIC "-//W3C//DTD SVG 20010904//EN"
 "http://www.w3.org/TR/2001/REC-SVG-20010904/DTD/svg10.dtd">
<svg version="1.0" xmlns="http://www.w3.org/2000/svg"
 width="2707.000000pt" height="1237.000000pt" viewBox="0 0 2707.000000 1237.000000"
 preserveAspectRatio="xMidYMid meet">

<g transform="translate(0.000000,1237.000000) scale(0.100000,-0.100000)"
fill="#000000" stroke="none">
<path d="M0 6185 l0 -6185 13535 0 13535 0 0 6185 0 6185 -13535 0 -13535 0 0
-6185z m13740 150 l0 -2675 -130 0 -130 0 0 105 0 105 25 0 25 0 0 2465 0
2465 -4790 0 -4790 0 0 -2465 0 -2465 1575 0 1575 0 0 -105 0 -105 -1680 0
-1680 0 0 2675 0 2675 5000 0 5000 0 0 -2675z m-790 812 c0 -19 -53 -98 -88
-131 -33 -31 -85 -45 -169 -46 -66 0 -67 10 -13 90 44 64 44 64 166 85 104 17
104 17 104 2z m-6280 -19 c26 -14 57 -41 75 -66 l30 -44 3 -1059 2 -1059 -205
0 -205 0 0 275 0 275 -720 0 -720 0 0 -275 0 -275 -206 0 -205 0 4 643 c4 616
5 646 26 740 101 453 429 770 880 851 58 11 208 14 636 15 l561 1 44 -22z
m892 -405 l3 -428 26 -56 c29 -61 85 -121 139 -149 73 -37 139 -42 570 -38
397 4 418 5 481 26 75 25 149 84 179 142 33 66 40 153 40 548 l0 382 206 0
206 0 -4 -442 c-5 -413 -6 -448 -26 -521 -75 -273 -291 -473 -574 -531 -46
-10 -127 -16 -203 -16 l-125 0 0 -370 0 -370 -205 0 -205 0 0 369 0 369 -152
5 c-171 5 -251 23 -366 81 -151 76 -256 180 -323 321 -73 152 -73 148 -77 653
l-3 452 205 0 205 0 3 -427z m2516 413 c45 -7 90 -20 100 -29 26 -24 85 -125
78 -135 -5 -9 -46 -8 -143 4 -52 6 -94 40 -140 111 -18 28 -33 55 -33 58 0 8
50 5 138 -9z m527 -56 c209 -28 385 -50 392 -50 10 0 13 -23 13 -85 0 -97 14
-141 56 -174 25 -20 37 -22 89 -18 l60 6 23 -39 c12 -21 22 -55 22 -75 0 -33
-2 -35 -26 -29 -18 5 -34 0 -53 -14 -26 -19 -91 -42 -119 -42 -14 0 -4 23 43
93 30 46 1 30 -36 -19 -19 -26 -48 -53 -66 -60 -37 -16 -93 -19 -93 -5 0 5 29
37 65 72 73 70 80 93 10 33 -85 -73 -106 -84 -151 -84 -24 0 -45 4 -48 9 -3 5
35 40 85 77 51 37 87 70 82 71 -6 2 -53 -23 -105 -57 -56 -36 -105 -60 -122
-60 -28 0 -106 35 -106 48 0 4 66 33 146 66 79 32 143 61 140 63 -2 3 -69 -14
-148 -36 -79 -23 -157 -41 -172 -41 -31 0 -116 44 -116 60 0 6 3 10 8 10 32 1
406 61 411 66 8 8 -169 -3 -314 -20 -127 -15 -153 -9 -207 53 l-32 36 270 5
c148 3 261 8 251 13 -10 4 -56 7 -101 7 -46 0 -158 3 -250 7 -192 7 -204 12
-263 97 -33 48 -40 66 -25 66 4 0 178 -23 387 -50z m2068 9 c-10 -17 -37 -51
-59 -74 l-41 -43 -94 -6 c-52 -3 -174 -8 -271 -12 -112 -4 -178 -10 -178 -17
0 -7 83 -8 255 -5 152 3 258 2 261 -4 8 -13 -71 -86 -102 -94 -21 -5 -245 13
-391 32 -24 3 -43 1 -43 -4 0 -4 89 -21 198 -37 108 -15 203 -31 210 -35 17
-9 -52 -57 -94 -66 -25 -5 -244 50 -328 82 -9 3 -16 2 -16 -2 0 -5 68 -36 151
-69 149 -59 151 -59 129 -77 -12 -10 -40 -23 -62 -30 -45 -13 -35 -17 -171 67
-42 26 -80 46 -83 43 -2 -3 37 -36 87 -74 l92 -68 -34 -9 c-51 -13 -96 6 -166
69 -35 30 -63 52 -63 48 0 -5 30 -39 67 -76 l67 -68 -53 0 c-48 0 -57 3 -90
38 -21 20 -45 48 -54 61 -9 14 -19 22 -23 19 -3 -4 11 -30 30 -60 30 -43 33
-54 20 -56 -30 -7 -80 8 -114 33 -24 18 -37 22 -50 15 -13 -7 -20 -5 -24 6
-11 29 -6 55 19 98 l25 43 44 -10 c36 -8 50 -7 82 9 60 30 78 71 77 176 -1 48
2 88 5 88 4 1 169 23 367 49 198 27 377 49 398 50 l38 1 -18 -31z m-1150 -123
c93 -38 129 -157 78 -251 -9 -16 -18 -43 -21 -60 l-5 -30 -125 0 -124 0 -7 30
c-3 17 -14 44 -23 60 -37 70 -30 145 21 206 48 56 135 75 206 45z m-1180 -79
c55 -64 55 -65 -28 -72 -41 -4 -86 -4 -100 -1 -27 7 -115 90 -115 108 0 8 34
9 108 4 105 -6 108 -7 135 -39z m2457 34 c0 -4 -25 -32 -56 -61 l-56 -53 -85
6 c-47 3 -88 8 -90 11 -3 3 11 25 32 50 26 32 45 46 68 49 63 8 187 7 187 -2z
m-2313 -185 l37 -33 -68 -23 c-65 -21 -69 -22 -112 -5 -48 18 -92 50 -83 59 8
8 127 34 162 35 18 1 40 -10 64 -33z m2081 20 c35 -8 66 -17 69 -20 16 -16
-80 -66 -126 -66 -34 0 -131 30 -131 41 0 14 77 59 100 59 14 -1 53 -7 88 -14z
m-1934 -129 c22 -12 40 -26 40 -32 1 -18 -97 -64 -124 -58 -30 7 -110 51 -110
61 0 9 109 50 135 51 11 0 38 -9 59 -22z m1763 1 c32 -12 61 -24 66 -28 12
-11 -88 -60 -123 -60 -30 0 -126 47 -116 57 22 22 75 52 93 53 11 0 47 -10 80
-22z m-847 -53 l0 -35 -105 0 -105 0 0 35 0 35 105 0 105 0 0 -35z m-712 -20
c4 -4 -6 -18 -21 -31 -22 -19 -39 -24 -83 -24 -30 0 -54 4 -54 8 0 5 17 21 38
36 29 22 45 26 75 22 21 -2 42 -7 45 -11z m1342 -11 c22 -15 40 -31 40 -35 0
-5 -24 -9 -54 -9 -39 0 -60 6 -80 21 -30 24 -33 36 -8 42 39 10 64 6 102 -19z
m-140 -46 c0 -12 -52 -9 -79 5 -37 19 -37 35 1 39 32 3 78 -23 78 -44z m-1074
30 c11 -17 -26 -38 -68 -38 -42 0 -46 5 -21 32 18 20 78 25 89 6z m164 2 c0
-10 -79 -34 -87 -26 -3 3 -3 12 0 21 7 17 87 22 87 5z m720 -5 c7 -9 10 -18 7
-21 -8 -8 -87 16 -87 26 0 16 66 11 80 -5z m-313 -72 c-4 -38 -7 -121 -7 -185
l0 -118 -80 0 -80 0 0 88 c0 48 -3 131 -7 185 l-6 97 93 0 93 0 -6 -67z m-214
25 c25 -13 21 -53 -7 -76 -14 -10 -53 -25 -88 -32 -96 -19 -98 -20 -119 -53
-23 -39 -25 -95 -3 -125 36 -52 62 -57 319 -62 201 -4 245 -8 271 -22 75 -41
87 -176 21 -246 -42 -45 -77 -52 -263 -52 -144 0 -175 -3 -188 -16 -18 -17
-21 -76 -6 -104 11 -21 60 -40 101 -40 29 0 29 1 29 60 l0 60 60 0 60 0 0 -60
c0 -57 1 -60 24 -60 69 0 112 -138 68 -220 -27 -49 -81 -74 -172 -79 -41 -2
-78 -8 -82 -15 -4 -6 -8 -29 -8 -51 0 -46 6 -57 38 -74 22 -12 22 -11 22 49
l0 60 45 0 45 0 0 -60 c0 -55 2 -61 28 -74 33 -17 52 -54 52 -99 0 -40 -21
-72 -61 -92 -19 -10 -29 -23 -29 -38 0 -46 -12 -68 -34 -65 -16 2 -22 11 -24
41 -3 32 -9 42 -38 59 -67 39 -93 156 -30 132 9 -4 16 -18 16 -34 0 -15 9 -35
20 -45 20 -18 20 -17 20 23 0 41 1 42 35 42 34 0 35 -1 35 -40 0 -41 7 -49 28
-28 15 15 16 53 2 79 -9 15 -22 19 -71 19 -60 0 -104 15 -128 44 -37 44 -30
169 11 213 17 18 33 23 77 24 31 1 44 4 29 6 -21 3 -28 10 -28 26 0 12 -3 39
-6 60 l-7 37 57 0 56 0 0 -57 1 -58 19 24 c22 26 25 56 10 95 l-10 26 -128 0
c-118 0 -132 2 -163 23 -18 12 -39 34 -46 47 -17 34 -16 125 2 160 29 57 42
60 245 60 165 0 188 2 217 19 39 24 51 67 29 109 -8 16 -23 33 -33 38 -10 4
-124 10 -253 13 l-235 6 -55 31 c-68 38 -100 93 -100 167 0 80 29 128 111 182
93 61 153 73 212 43z m460 -41 c72 -50 102 -91 111 -149 11 -82 -18 -151 -83
-195 l-33 -22 -33 32 c-28 27 -31 33 -17 42 59 38 77 63 77 109 0 63 -31 92
-116 112 -118 27 -152 51 -129 94 27 51 132 41 223 -23z m-580 -417 c14 0 16
-4 7 -19 -14 -28 -12 -68 5 -95 14 -21 13 -24 -9 -45 -14 -13 -29 -20 -34 -17
-20 12 -42 76 -42 123 0 56 6 66 35 59 11 -3 28 -6 38 -6z m317 -27 c0 -21 -3
-55 -6 -76 l-7 -38 -61 3 -61 3 -3 73 -3 72 71 0 70 0 0 -37z m184 -219 c18
-47 -3 -133 -41 -166 -19 -17 -20 -17 -42 12 l-22 31 21 27 c16 20 20 35 15
58 -5 28 -2 33 22 42 38 14 40 14 47 -4z m-364 -268 c0 -17 2 -40 5 -51 4 -14
-3 -26 -21 -39 -26 -19 -27 -19 -40 -1 -8 11 -14 44 -14 75 l0 56 35 -4 c32
-4 35 -7 35 -36z m264 -182 c11 -29 6 -105 -9 -134 l-15 -30 -25 21 c-22 20
-23 23 -8 45 10 16 13 35 9 58 -5 27 -3 37 11 45 25 14 30 14 37 -5z m1164
-1331 l2 -533 50 0 50 0 0 -50 0 -50 -81 0 c-76 0 -82 2 -110 29 l-29 29 0
557 0 556 58 -3 57 -3 3 -532z m-1627 510 c22 -25 18 -102 -5 -119 -26 -19
-76 -18 -104 2 -27 19 -31 93 -6 118 21 22 97 21 115 -1z m-3301 -288 l0 -245
245 0 245 0 0 245 0 245 60 0 60 0 0 -550 0 -550 -60 0 -60 0 0 250 0 250
-245 0 -245 0 0 -250 0 -250 -65 0 -65 0 0 550 0 550 65 0 65 0 0 -245z m3700
70 l0 -115 80 0 80 0 0 -50 0 -49 -77 -3 -78 -3 0 -300 0 -300 73 -3 72 -3 0
-49 0 -50 -100 0 c-96 0 -101 1 -132 29 l-33 29 -3 326 -3 326 -60 0 -59 0 0
50 0 50 49 0 c73 0 81 13 81 124 0 51 3 96 7 99 3 4 28 7 55 7 l48 0 0 -115z
m-2404 -131 c100 -50 153 -140 175 -299 24 -175 -23 -359 -112 -439 -109 -99
-313 -102 -422 -6 -169 149 -170 560 -2 708 62 54 121 73 221 69 66 -3 93 -9
140 -33z m725 9 c24 -11 62 -36 83 -57 l40 -37 -36 -35 -35 -36 -47 36 c-74
56 -143 69 -216 40 -48 -19 -70 -55 -70 -113 0 -86 31 -112 172 -140 109 -22
164 -47 201 -91 69 -81 59 -235 -21 -319 -60 -63 -178 -87 -301 -60 -54 11
-142 68 -175 112 l-21 29 38 35 38 35 53 -50 c73 -69 162 -91 239 -58 50 21
70 50 75 111 8 93 -27 126 -158 151 -198 37 -271 112 -257 265 10 109 62 169
172 200 49 14 178 3 226 -18z m784 3 c72 -33 127 -100 156 -188 21 -63 24 -92
24 -218 0 -191 -20 -257 -104 -340 -60 -60 -106 -80 -183 -80 -90 0 -155 36
-188 105 -12 25 -26 45 -31 45 -5 0 -9 -97 -9 -225 l0 -226 -57 3 -58 3 -3
563 -2 562 60 0 60 0 0 -65 c0 -36 4 -65 9 -65 5 0 19 20 31 45 34 71 93 103
190 104 38 1 71 -6 105 -23z m1632 -12 c45 -22 65 -40 88 -78 l30 -49 3 -284
3 -283 40 0 39 0 0 -50 0 -50 -60 0 c-34 0 -74 7 -89 15 -28 14 -51 58 -51 96
0 27 -17 23 -24 -5 -17 -70 -105 -125 -196 -126 -161 0 -236 82 -229 248 5
104 36 153 124 197 55 27 69 30 192 33 l133 4 0 74 c0 123 -36 174 -135 189
-69 10 -123 -10 -177 -65 l-46 -48 -32 27 c-42 34 -36 55 32 116 64 57 120 76
220 72 60 -3 88 -10 135 -33z m-1137 -389 l0 -405 -60 0 -60 0 0 405 0 405 60
0 60 0 0 -405z"/>
<path d="M5453 6715 c-254 -65 -426 -228 -493 -465 -15 -55 -22 -118 -27 -232
l-6 -158 721 0 722 0 0 440 0 440 -412 0 c-402 -1 -416 -2 -505 -25z"/>
<path d="M11245 6470 c-8 -13 20 -24 40 -16 8 3 15 10 15 16 0 13 -47 13 -55
0z"/>
<path d="M11600 6465 c0 -12 7 -15 25 -13 14 2 26 8 26 13 0 6 -12 11 -26 13
-18 2 -25 -1 -25 -13z"/>
<path d="M8880 4058 c-32 -16 -52 -36 -70 -68 -24 -43 -25 -52 -25 -225 0
-173 1 -182 25 -225 35 -63 86 -90 171 -90 91 0 144 29 179 95 24 47 25 58 25
205 0 85 -4 172 -8 193 -10 45 -60 105 -104 123 -51 22 -142 18 -193 -8z"/>
<path d="M10400 4058 c-79 -40 -85 -61 -85 -293 0 -183 2 -203 20 -235 29 -50
93 -80 170 -80 84 0 132 28 168 99 26 53 27 60 27 216 0 156 -1 163 -27 216
-36 71 -84 99 -168 99 -43 0 -74 -6 -105 -22z"/>
<path d="M12039 3718 c-56 -14 -82 -48 -87 -112 -2 -29 1 -70 8 -90 27 -82
167 -98 258 -30 49 38 62 72 62 164 l0 80 -102 -1 c-57 -1 -119 -5 -139 -11z"/>
</g>
</svg>
