<svg xmlns="http://www.w3.org/2000/svg" version="1.1" xmlns:xlink="http://www.w3.org/1999/xlink" xmlns:svgjs="http://svgjs.dev/svgjs" width="1500" height="896" viewBox="0 0 1500 896"><g transform="matrix(1,0,0,1,0.15999999999996817,-0.22798000000005914)"><svg viewBox="0 0 375 224" data-background-color="#ffffff" preserveAspectRatio="xMidYMid meet" height="896" width="1500" xmlns="http://www.w3.org/2000/svg" xmlns:xlink="http://www.w3.org/1999/xlink"><g id="tight-bounds" transform="matrix(1,0,0,1,-0.03976000000000113,0.057255000000012046)"><svg viewBox="0 0 375.07953 223.88575" height="223.88575" width="375.07953"><g><svg></svg></g><g><svg viewBox="0 0 375.07953 223.88575" height="223.88575" width="375.07953"><g transform="matrix(1,0,0,1,-10.22024,-23.31425999999999)"><path d="M10.22 223.886v-200.572h375.08v200.572l-9.686 0 0-7.638h2.048v-185.296h-359.804v185.296h118.385l0 7.638z" fill="#007c9d" fill-rule="nonzero" stroke="none" stroke-width="1" stroke-linecap="butt" stroke-linejoin="miter" stroke-miterlimit="10" stroke-dasharray="" stroke-dashoffset="0" font-family="none" font-weight="none" font-size="none" text-anchor="none" style="mix-blend-mode: normal" data-fill-palette-color="tertiary"></path><g><path transform="translate(154.23879,235.35151) scale(1.18485,1.18485)" d="M23.7 0v-15.9h-15.55v15.9h-4v-34.9h4v15.5h15.55v-15.5h4v34.9zM44.45 0.6v0c-1.5 0-2.9-0.25-4.2-0.75-1.3-0.5-2.417-1.3-3.35-2.4-0.933-1.1-1.667-2.5-2.2-4.2-0.533-1.7-0.8-3.75-0.8-6.15v0c0-2.4 0.267-4.45 0.8-6.15 0.533-1.7 1.267-3.1 2.2-4.2 0.933-1.1 2.05-1.9 3.35-2.4 1.3-0.5 2.7-0.75 4.2-0.75v0c1.5 0 2.9 0.25 4.2 0.75 1.3 0.5 2.417 1.3 3.35 2.4 0.933 1.1 1.667 2.5 2.2 4.2 0.533 1.7 0.8 3.75 0.8 6.15v0c0 2.4-0.267 4.45-0.8 6.15-0.533 1.7-1.267 3.1-2.2 4.2-0.933 1.1-2.05 1.9-3.35 2.4-1.3 0.5-2.7 0.75-4.2 0.75zM44.45-2.8v0c2.067 0 3.66-0.617 4.78-1.85 1.113-1.233 1.67-3.117 1.67-5.65v0-5.2c0-2.533-0.557-4.417-1.67-5.65-1.12-1.233-2.713-1.85-4.78-1.85v0c-2.067 0-3.657 0.617-4.77 1.85-1.12 1.233-1.68 3.117-1.68 5.65v0 5.2c0 2.533 0.56 4.417 1.68 5.65 1.113 1.233 2.703 1.85 4.77 1.85zM68 0.6v0c-2.133 0-3.957-0.433-5.47-1.3-1.52-0.867-2.813-2.067-3.88-3.6v0l2.65-2.2c0.9 1.267 1.877 2.233 2.93 2.9 1.047 0.667 2.303 1 3.77 1v0c1.5 0 2.693-0.377 3.58-1.13 0.88-0.747 1.32-1.82 1.32-3.22v0c0-1.133-0.283-2.05-0.85-2.75-0.567-0.7-1.617-1.183-3.15-1.45v0l-1.95-0.35c-2.5-0.467-4.357-1.25-5.57-2.35-1.22-1.1-1.83-2.767-1.83-5v0c0-1.3 0.2-2.427 0.6-3.38 0.4-0.947 0.967-1.73 1.7-2.35 0.733-0.613 1.61-1.063 2.63-1.35 1.013-0.28 2.12-0.42 3.32-0.42v0c1.933 0 3.56 0.34 4.88 1.02 1.313 0.687 2.453 1.68 3.42 2.98v0l-2.45 2.25c-0.567-0.8-1.317-1.51-2.25-2.13-0.933-0.613-2.133-0.92-3.6-0.92v0c-3.033 0-4.55 1.383-4.55 4.15v0c0 1.267 0.327 2.19 0.98 2.77 0.647 0.587 1.703 1.013 3.17 1.28v0l1.95 0.35c2.633 0.467 4.5 1.283 5.6 2.45 1.1 1.167 1.65 2.75 1.65 4.75v0c0 2.5-0.723 4.457-2.17 5.87-1.453 1.42-3.597 2.13-6.43 2.13zM82.8 10v-35.8h3.8v4.2h0.5c0.5-1.7 1.31-2.927 2.43-3.68 1.113-0.747 2.47-1.12 4.07-1.12v0c1.533 0 2.883 0.317 4.05 0.95 1.167 0.633 2.15 1.533 2.95 2.7 0.8 1.167 1.4 2.583 1.8 4.25 0.4 1.667 0.6 3.533 0.6 5.6v0c0 2.067-0.2 3.933-0.6 5.6-0.4 1.667-1 3.083-1.8 4.25-0.8 1.167-1.783 2.067-2.95 2.7-1.167 0.633-2.517 0.95-4.05 0.95v0c-1.6 0-2.957-0.377-4.07-1.13-1.12-0.747-1.93-1.97-2.43-3.67v0h-0.5v14.2zM92.45-2.8v0c2.1 0 3.7-0.66 4.8-1.98 1.1-1.313 1.65-3.153 1.65-5.52v0-5.2c0-2.367-0.55-4.21-1.65-5.53-1.1-1.313-2.7-1.97-4.8-1.97v0c-0.8 0-1.56 0.117-2.28 0.35-0.713 0.233-1.327 0.567-1.84 1-0.52 0.433-0.937 0.95-1.25 1.55-0.32 0.6-0.48 1.267-0.48 2v0 10.4c0 0.733 0.16 1.4 0.48 2 0.313 0.6 0.73 1.117 1.25 1.55 0.513 0.433 1.127 0.767 1.84 1 0.72 0.233 1.48 0.35 2.28 0.35zM110.9-32.05v0c-1.567 0-2.35-0.683-2.35-2.05v0-0.8c0-1.367 0.783-2.05 2.35-2.05v0c1.567 0 2.35 0.683 2.35 2.05v0 0.8c0 1.367-0.783 2.05-2.35 2.05zM109 0v-25.8h3.8v25.8zM130.25 0h-4.65c-1.367 0-2.357-0.31-2.97-0.93-0.62-0.613-0.93-1.603-0.93-2.97v0-18.55h-3.8v-3.35h2.25c0.767 0 1.277-0.193 1.53-0.58 0.247-0.38 0.37-0.953 0.37-1.72v0-4.8h3.45v7.1h5v3.35h-5v19.1h4.75zM155.3 0h-2.7c-2.467 0-3.7-1.233-3.7-3.7v0-0.5h-0.5c-0.433 1.567-1.223 2.757-2.37 3.57-1.153 0.82-2.53 1.23-4.13 1.23v0c-2.5 0-4.367-0.633-5.6-1.9-1.233-1.267-1.85-3.133-1.85-5.6v0c0-2.4 0.79-4.3 2.37-5.7 1.587-1.4 4.063-2.1 7.43-2.1v0h4.65v-2.85c0-1.9-0.423-3.3-1.27-4.2-0.853-0.9-2.197-1.35-4.03-1.35v0c-1.5 0-2.71 0.323-3.63 0.97-0.913 0.653-1.703 1.597-2.37 2.83v0l-2.25-2.1c0.667-1.4 1.733-2.577 3.2-3.53 1.467-0.947 3.2-1.42 5.2-1.42v0c2.933 0 5.16 0.707 6.68 2.12 1.513 1.42 2.27 3.513 2.27 6.28v0 14.6h2.6zM142.85-2.7v0c0.867 0 1.677-0.15 2.43-0.45 0.747-0.3 1.387-0.693 1.92-1.18 0.533-0.48 0.95-1.03 1.25-1.65 0.3-0.613 0.45-1.253 0.45-1.92v0-3.9h-4.75c-2 0-3.457 0.333-4.37 1-0.92 0.667-1.38 1.633-1.38 2.9v0 1.4c0 1.3 0.4 2.257 1.2 2.87 0.8 0.62 1.883 0.93 3.25 0.93zM167.5 0h-3.15c-1.367 0-2.357-0.31-2.97-0.93-0.62-0.613-0.93-1.603-0.93-2.97v0-33.1h3.8v33.65h3.25z" fill="#007c9d" fill-rule="nonzero" stroke="none" stroke-width="1" stroke-linecap="butt" stroke-linejoin="miter" stroke-miterlimit="10" stroke-dasharray="" stroke-dashoffset="0" font-family="none" font-weight="none" font-size="none" text-anchor="none" style="mix-blend-mode: normal" data-fill-palette-color="secondary"></path></g></g><g transform="matrix(1,0,0,1,29.33176499999999,69.40488041003161)"><svg viewBox="0 0 316.416 85.0759891799368" height="85.0759891799368" width="316.416"><g><svg viewBox="0 0 546.492761973354 146.93761473679854" height="85.0759891799368" width="316.416"><g transform="matrix(1,0,0,1,0,0.33203367400854233)"><svg viewBox="0 0 316.41600000000005 146.27354738878145" height="146.27354738878145" width="316.41600000000005"><g id="textblocktransform"><svg viewBox="0 0 316.41600000000005 146.27354738878145" height="146.27354738878145" width="316.41600000000005" id="textblock"><g><svg viewBox="0 0 316.41600000000005 146.27354738878145" height="146.27354738878145" width="316.41600000000005"><g transform="matrix(1,0,0,1,0,0)"><svg width="316.41600000000005" viewBox="3.0299999999999994 -35.01 75.73 35.01" height="146.27354738878145" data-palette-color="#007c9d"><path d="M38.04-31.81L38.04 0 31.69 0 31.69-8.59 9.38-8.59 9.38 0 3.03 0 3.03-17.5Q3.03-21.34 4.35-24.56 5.66-27.78 8.01-30.1 10.35-32.42 13.55-33.72 16.75-35.01 20.53-35.01L20.53-35.01 34.84-35.01Q35.5-35.01 36.08-34.77 36.67-34.52 37.11-34.08 37.55-33.64 37.79-33.06 38.04-32.47 38.04-31.81L38.04-31.81ZM9.38-17.5L9.38-14.94 31.69-14.94 31.69-28.66 20.53-28.66Q20.24-28.66 19.3-28.58 18.36-28.49 17.13-28.15 15.89-27.81 14.53-27.1 13.16-26.39 12.01-25.15 10.86-23.9 10.12-22.03 9.38-20.17 9.38-17.5L9.38-17.5ZM78.76-35.01L78.76-23.29Q78.76-21.12 78.21-19.41 77.66-17.7 76.76-16.39 75.85-15.09 74.64-14.16 73.44-13.23 72.14-12.63 70.85-12.04 69.52-11.77 68.19-11.5 67.01-11.5L67.01-11.5 64.45-11.5 64.45 0 58.05 0 58.05-11.5 55.52-11.5Q54.34-11.5 53.01-11.77 51.68-12.04 50.38-12.63 49.07-13.23 47.87-14.16 46.68-15.09 45.76-16.39 44.85-17.7 44.3-19.42 43.75-21.14 43.75-23.29L43.75-23.29 43.75-35.01 50.1-35.01 50.1-23.29Q50.1-22.05 50.49-21.06 50.88-20.07 51.58-19.36 52.29-18.65 53.31-18.27 54.32-17.9 55.56-17.9L55.56-17.9 67.01-17.9Q67.92-18.04 68.87-18.27 69.82-18.51 70.6-19.07 71.38-19.63 71.9-20.63 72.41-21.63 72.41-23.29L72.41-23.29 72.41-35.01 78.76-35.01Z" opacity="1" transform="matrix(1,0,0,1,0,0)" fill="#007c9d" class="wordmark-text-0" data-fill-palette-color="primary" id="text-0"></path></svg></g></svg></g></svg></g></svg></g><g transform="matrix(1,0,0,1,350.94767397335403,0)"><svg viewBox="0 0 195.545088 146.93761473679854" height="146.93761473679854" width="195.545088"><g><svg xmlns="http://www.w3.org/2000/svg" xmlns:xlink="http://www.w3.org/1999/xlink" version="1.1" x="0" y="0" viewBox="2.423359317032965 14.074516600406096 95.05328136593405 71.4254833995939" style="enable-background:new 0 0 100 100;" xml:space="preserve" height="146.93761473679854" width="195.545088" class="icon-icon-0" data-fill-palette-color="accent" id="icon-0"><path class="" d="M45.8 69c0.5-0.4 1-0.6 1.4-0.7-0.4-0.4-0.7-0.9-0.7-1.6l0 0c0-0.7 0.1-1.1 0.2-1.5h-0.1l0 0c-0.2 0-1.2 0-2.2-0.4-0.1 0.5-0.2 1.1-0.2 1.9l0 0c0 1.4 0.4 2.3 1 3C45.3 69.4 45.6 69.2 45.8 69zM55.7 57.8c0.1 0.4 0.2 0.9 0.2 1.7l0 0c0 1.2-0.7 1.8-1.4 2.1 0.1 0.1 0.2 0.1 0.3 0.2 0.5 0.4 1 1 1.2 1.7 1.1-0.6 2.2-1.8 2.2-4l0 0c0-1-0.1-1.9-0.4-2.5C57.2 57.4 56.5 57.7 55.7 57.8zM41.6 55.7c0.2-0.4 0.5-0.7 0.9-1 0.3-0.2 0.6-0.4 0.8-0.5-0.6-0.4-1.2-1.1-1.2-2.2l0 0c0-0.9 0.3-1.5 0.8-1.9-0.6 0-1.6-0.2-2.6-0.5-0.3 0.6-0.5 1.4-0.5 2.3l0 0C39.9 53.7 40.6 54.9 41.6 55.7zM53.9 71.6c-0.3 0.2-0.6 0.3-0.9 0.4 0.2 0.4 0.4 0.9 0.4 1.9l0 0c0 0.9-0.4 1.5-0.9 1.9 0.1 0.1 0.3 0.1 0.5 0.2 0.3 0.2 0.7 0.5 1 1 0.6-0.7 1.1-1.6 1.1-3.1l0 0c0-1.1-0.2-2-0.4-2.7C54.4 71.3 54.1 71.5 53.9 71.6zM53.2 31.4v1.8c0 0.2-0.2 0.4-0.4 0.4H47c-0.2 0-0.4-0.2-0.4-0.4v-1.8C46.6 31.4 53.2 31.4 53.2 31.4zM42.6 26.6c0 0-0.1-0.2-0.3-0.1-2.1 1.1-7.5 1.2-6-7.7 0.1-0.3-0.1-0.5-0.4-0.6-4-0.5-20.7-2.7-24.5-3.2-0.5-0.1-0.6 0.1-0.5 0.4 0.7 1.3 2.7 4.4 4.5 4.5 2.1 0.1 14.4 0.6 16 0.6 0.4 0 0.2 0.5 0.1 0.5s-13-0.1-16-0.1c-0.4 0-0.5 0.2-0.3 0.5 0.8 1 2.7 3.1 4.1 2.9 1.8-0.3 11.4-1.2 12.8-1.3 0.3 0 0.3 0.5 0.1 0.5s-10.6 1.6-13 1.9c-0.3 0-0.3 0.2-0.1 0.4 0.9 0.7 2.9 2.2 4.5 1.8 2-0.5 8.2-2.4 9.4-2.7 0.3-0.1 0.3 0.4 0.1 0.4-0.2 0.1-7.4 3-9.2 3.7-0.3 0.1-0.3 0.2-0.1 0.4 0.9 0.5 3.3 1.9 4.3 1.3 1.1-0.7 5.1-3.2 6-3.8 0.2-0.1 0.5 0.2 0.3 0.4-0.2 0.2-4.3 3.2-5.5 4.1-0.2 0.1-0.1 0.3 0.1 0.4 0.9 0.2 2.9 0.6 4.2-0.6 1.4-1.2 2.9-2.6 3.4-3 0.2-0.2 0.6 0.1 0.4 0.2-0.1 0.1-3.1 3.1-4.1 4-0.2 0.2-0.1 0.3 0.2 0.4 0.9 0.1 3 0.3 4.1-1.1s1.7-2.3 2-2.6c0.2-0.2 0.6-0.1 0.5 0.1s-1.6 2.5-2.2 3.4c-0.1 0.2-0.1 0.3 0.2 0.3 0.9-0.1 3.2-0.4 3.8-1.2 0.8-1.1 1.7-0.7 2-0.3 0.3 0.4 0.4-0.2 0.4-0.2l0.3-1.7L42.6 26.6zM28.9 32.5c-0.6-0.2-0.9 0.2-0.9 0.2s-1.9 1.4-2.2 1.6c-0.3 0.2-0.2 0.4 0.2 0.5 1 0.2 2.9 0.5 4.2-0.7 0.2-0.1 0.3-0.3 0.5-0.5 0.1-0.1 0.4-0.4-0.1-0.6C30 32.8 29.4 32.7 28.9 32.5M37.9 33.6c-0.3 0-0.4 0.1-0.5 0.2-0.1 0.1-0.4 0.6-0.4 0.7 0 0.1-0.1 0.3 0.2 0.3 0.8-0.1 2.4-0.3 2.9-0.9 0.1-0.1 0-0.2-0.2-0.2C39.3 33.7 38.6 33.6 37.9 33.6M10.4 16.1c-0.6-1-1.6-1-1.6-1l-4.5-0.7c-0.5-0.1-1-0.2-1.3-0.2-0.5-0.1-0.7 0.1-0.5 0.5 0.8 1.4 2.8 4.9 4.8 5.1 0.7 0.1 2.4 0.2 4.6 0.4 0.6 0 0.8-0.5 0.6-0.7s-0.3-0.4-0.4-0.7L10.4 16.1zM33.1 33.4c-0.3-0.1-0.5 0.2-0.5 0.2s-1 1-1.2 1.2-0.1 0.3 0.2 0.4c0.8 0.1 2.5 0.1 3.4-1 0.1-0.1 0.1-0.3-0.2-0.4C34.2 33.6 33.4 33.4 33.1 33.4M23.7 30.4c-0.9-0.5-1.5-0.3-1.5-0.3s-3.5 1.2-3.9 1.4c-0.3 0.1-0.3 0.3 0 0.5 1.1 0.7 3.6 2.3 4.7 1.6 0.5-0.3 1.5-0.9 2.7-1.5 0.1-0.1 0.3-0.3 0-0.5C24.9 31.2 24.3 30.8 23.7 30.4M14.7 22.1c-0.4-0.6-0.7-0.6-1.3-0.6-0.5 0-5.4-0.2-5.7-0.2-0.2 0-0.5 0.2-0.2 0.4 0.8 1.1 2.9 3.6 4.5 3.4 0.8-0.1 2.3-0.2 4.2-0.3 0.2 0 0.6-0.2 0.3-0.5C15.9 23.6 15.3 22.8 14.7 22.1M18.8 26.6c-0.2-0.2-0.6-0.5-1.2-0.3-0.7 0.1-4.5 0.9-4.9 1-0.5 0.1-0.5 0.3-0.1 0.6 1 0.8 3.2 2.2 4.9 1.7 0.6-0.2 1.7-0.6 2.9-1 0.2-0.1 0.5-0.3 0.1-0.6C19.9 27.5 19.3 27.1 18.8 26.6M55.6 29.7l0.3 1.7c0 0 0.1 0.7 0.4 0.2 0.3-0.4 1.2-0.8 2 0.3 0.6 0.8 2.9 1.1 3.8 1.2 0.2 0 0.3-0.1 0.2-0.3-0.6-0.9-2.1-3.3-2.2-3.4-0.1-0.2 0.3-0.3 0.5-0.1 0.2 0.3 0.8 1.2 2 2.6 1.1 1.3 3.2 1.2 4.1 1.1 0.3 0 0.4-0.2 0.2-0.4-1-0.9-3.9-3.9-4.1-4-0.1-0.1 0.2-0.4 0.4-0.2 0.4 0.4 2 1.8 3.4 3 1.3 1.2 3.3 0.8 4.2 0.6 0.3-0.1 0.3-0.2 0.1-0.4-1.2-0.9-5.3-4-5.5-4.1s0.1-0.5 0.3-0.4c0.9 0.5 4.9 3.1 6 3.8 0.9 0.6 3.4-0.7 4.3-1.3 0.2-0.1 0.2-0.3-0.1-0.4-1.8-0.7-9.1-3.7-9.2-3.7-0.2-0.1-0.1-0.5 0.1-0.4 1.1 0.3 7.4 2.2 9.4 2.7 1.6 0.5 3.7-1.1 4.5-1.8 0.3-0.2 0.2-0.4-0.1-0.4-2.4-0.4-12.8-1.9-13-1.9s-0.2-0.5 0.1-0.5c1.4 0.1 11 1.1 12.8 1.3 1.4 0.2 3.4-1.9 4.1-2.9 0.2-0.3 0.1-0.5-0.3-0.5-3 0-15.9 0.1-16 0.1s-0.3-0.5 0.1-0.5c1.5-0.1 13.8-0.5 16-0.6 1.8-0.1 3.8-3.2 4.5-4.5 0.2-0.3 0-0.5-0.5-0.4-3.8 0.5-20.5 2.7-24.5 3.2-0.3 0-0.4 0.3-0.4 0.6 1.5 8.9-3.9 8.7-6 7.7-0.2-0.1-0.3 0.1-0.3 0.1L55.6 29.7zM71.1 32.5c-0.6 0.2-1.2 0.3-1.7 0.5-0.6 0.2-0.2 0.5-0.1 0.6 0.2 0.2 0.3 0.3 0.5 0.5 1.3 1.2 3.2 0.9 4.2 0.7 0.4-0.1 0.5-0.3 0.2-0.5S72 32.7 72 32.7 71.7 32.3 71.1 32.5M62.1 33.6c-0.7 0.1-1.3 0.1-2 0.1-0.2 0-0.3 0.1-0.2 0.2 0.5 0.6 2.1 0.8 2.9 0.9 0.3 0 0.2-0.2 0.2-0.3s-0.4-0.6-0.4-0.7C62.4 33.7 62.3 33.6 62.1 33.6M87.8 18.7c-0.1 0.2-0.3 0.4-0.4 0.7-0.2 0.3 0 0.7 0.6 0.7 2.2-0.1 3.8-0.3 4.6-0.4 2-0.2 4-3.7 4.8-5.1 0.2-0.4 0-0.6-0.5-0.5-0.3 0.1-0.8 0.1-1.3 0.2L91.1 15c0 0-1 0.1-1.6 1L87.8 18.7zM66.9 33.4c-0.3 0.1-1.1 0.3-1.7 0.3C65 33.8 65 34 65.1 34.1c0.9 1.1 2.6 1.1 3.4 1 0.3 0 0.3-0.2 0.2-0.4-0.2-0.2-1.2-1.2-1.2-1.2S67.2 33.3 66.9 33.4M76.3 30.4c-0.6 0.4-1.2 0.8-1.8 1.2-0.3 0.2-0.2 0.4 0 0.5 1.1 0.6 2.2 1.2 2.7 1.5 1.1 0.6 3.6-0.9 4.7-1.6 0.3-0.2 0.2-0.4-0.1-0.5-0.3-0.1-3.9-1.4-3.9-1.4S77.1 29.9 76.3 30.4M85.3 22.1c-0.6 0.7-1.2 1.5-1.8 2.2-0.2 0.3 0.1 0.5 0.3 0.5 1.9 0.1 3.4 0.3 4.2 0.3 1.6 0.2 3.7-2.3 4.5-3.4 0.2-0.3 0-0.5-0.2-0.4-0.2 0-5.1 0.1-5.7 0.2C86 21.5 85.7 21.5 85.3 22.1M81.2 26.6c-0.5 0.5-1.1 0.9-1.7 1.3-0.4 0.3-0.1 0.6 0.1 0.6 1.2 0.4 2.3 0.8 2.9 1 1.7 0.5 3.9-0.9 4.9-1.7 0.4-0.3 0.3-0.6-0.1-0.6-0.5-0.1-4.2-0.8-4.9-1C81.8 26.1 81.4 26.5 81.2 26.6M55.6 25.2c0-3.1-2.5-5.6-5.6-5.6s-5.6 2.5-5.6 5.6c0 1.4 0.5 2.8 1.4 3.8v1.5c0 0.2 0.2 0.4 0.4 0.4h7.6c0.2 0 0.4-0.2 0.4-0.4V29C55.1 28 55.6 26.6 55.6 25.2zM51.8 61.4l0.1-3.7H48l0.1 3.7C48.7 61.4 51.6 61.4 51.8 61.4zM51.3 75.7l0.1-3.7h-2.9l0.1 3.8C48.9 75.7 51.3 75.7 51.3 75.7zM48.4 68.5h3.1l0.1-3.7h-3.4L48.4 68.5zM47.9 54.2H52l0.2-4.5h-4.5L47.9 54.2zM52.4 46l0.4-11.9h-5.6L47.6 46H52.4zM60 36.6c-0.5-0.7-1.5-1.3-2.7-1.5-1.9-0.4-3.7 0.2-4 1.3-0.2 1.2 1.1 2 3.1 2.4 0.9 0.2 1.8 0.6 2.5 0.4 1.2 0.5 2.4 1.5 2.4 3.4l0 0c0 2.2-1.7 3.2-3.4 3.6 1.1 0.5 1.8 1.2 2.3 2.1 1.9-0.8 3.9-2.4 3.9-5.7l0 0C64.1 38.9 61.7 37.3 60 36.6zM55.6 36.4c-0.5 0-1-0.2-1-0.5s0.4-0.5 1-0.5 1 0.2 1 0.5S56.1 36.4 55.6 36.4zM55.6 46.6h-1.8l0 0H50h-3.8c0 0 0 0-0.1 0h-0.5c0 0-7 0.5-7-3.9l0 0c0-2 1.2-3 2.4-3.5 0.7 0.2 1.6-0.2 2.6-0.4 1.9-0.4 3.3-1.2 3.1-2.4s-2-1.7-4-1.3c-1.2 0.3-2.2 0.8-2.7 1.5-1.8 0.7-4.2 2.3-4.2 6l0 0c0 3.9 2.8 5.5 5 6.1l0 0c0 0 0 0 0.1 0s0.3 0.1 0.4 0.1h0.1c1.2 0.3 2 0.3 2 0.3h0.1 1.9l0 0H52h2.2l0 0 0 0c0.4 0 3.3 0.1 3.3 2.8l0 0c0 2.9-3.4 2.8-3.4 2.8s-3.3 0-3.7 0h-0.2-0.5-5.2l0 0 0 0c0 0 0 0-0.1 0l0 0c0 0-0.1 0-0.2 0 0 0 0 0-0.1 0s-0.1 0-0.2 0h-0.1c-0.1 0-0.1 0-0.2 0.1h-0.1c-0.2 0.1-0.4 0.2-0.7 0.4 0 0-0.1 0-0.1 0.1-0.1 0.1-0.2 0.2-0.3 0.2l-0.1 0.1c-0.1 0.1-0.2 0.2-0.3 0.3 0 0 0 0-0.1 0.1l0 0c-0.4 0.7-0.8 1.7-0.8 3.3 0 2.8 1.6 3.9 3 4.4l0 0c0.1 0 0.2 0.1 0.4 0.1h0.1c0.1 0 0.2 0 0.3 0.1H45c0.1 0 0.2 0 0.2 0h0.1c0.1 0 0.2 0 0.3 0l0 0c0.1 0 0.2 0 0.2 0l0 0c0.1 0 0.1 0 0.2 0l0 0h3.4 1.1 1.4c0 0 0.9-0.1 0.9 2.4l0 0c0 2.3-2.6 2.4-2.9 2.4l0 0 0 0 0 0 0 0h-0.3H50h-1.9l0 0 0 0 0 0c0 0 0 0-0.1 0 0 0-0.1 0-0.2 0l0 0c-0.1 0-0.1 0-0.2 0 0 0 0 0-0.1 0s-0.1 0-0.2 0.1h-0.1c-0.1 0-0.2 0.1-0.3 0.1 0 0 0 0-0.1 0-0.2 0.1-0.5 0.3-0.7 0.5 0 0 0 0-0.1 0.1s-0.2 0.2-0.3 0.3l0 0 0 0c-0.5 0.7-0.9 1.8-0.9 3.5 0 4.8 4.1 4.4 5 4.4 0.1 0 0.1 0 0.2 0h0.7l0 0c0.3 0 0.5 0 0.5 0s1.1 0.3 1.1 1.8C52.2 81 51 81.3 51 81.3l0 0 0.1-2.7h-2.3l0.1 2.6c0 0-1.3-0.3-1.4-1.8 0-0.4 0.1-0.8 0.2-1-0.5-0.1-1-0.3-1.5-0.6-0.1 0.4-0.2 0.9-0.2 1.6 0 2.2 2.1 3.2 2.9 3.2L49 85c0 0.2 0.2 0.5 0.9 0.5 0.8 0 0.9-0.3 0.9-0.5l0.1-2.4c0.9-0.1 3-1 3-3.2 0-3.5-3-3.6-3.3-3.6l0 0 0 0h-0.8-0.2-0.4c0 0-2.8 0.1-2.8-2.4s1.1-2.4 1.1-2.4H49h0.7 0.8l0 0 0 0c0 0 0 0 0.1 0 0 0 0 0 0.1 0s0.4 0 0.6-0.1h0.1c0.1 0 0.2 0 0.3-0.1h0.1c0.1 0 0.2-0.1 0.3-0.1s0.1 0 0.2-0.1c0.1 0 0.2-0.1 0.3-0.1s0.1 0 0.2-0.1c0.1 0 0.2-0.1 0.3-0.2 0.1 0 0.1-0.1 0.2-0.1 0.1-0.1 0.2-0.2 0.4-0.2 0 0 0.1 0 0.1-0.1l0 0c0.9-0.7 1.6-1.8 1.6-3.7l0 0c0-1.6-0.3-2.6-0.8-3.3 0 0 0-0.1-0.1-0.1-0.1-0.1-0.2-0.3-0.3-0.4 0 0 0 0 0-0.1-0.1-0.1-0.3-0.2-0.4-0.3l0 0c-0.1-0.1-0.2-0.1-0.3-0.2 0 0 0 0-0.1 0-0.2-0.1-0.5-0.2-0.6-0.2 0 0 0 0-0.1 0s-0.1 0-0.2 0l0 0c-0.1 0-0.1 0-0.1 0l0 0 0 0c0 0-3.5 0-4.1 0H47l0 0c-0.2 0-0.3 0-0.3 0s-3 0.1-3-2.4 0.9-2.4 0.9-2.4 0.5 0 1.2 0h3.8 2.3 1.5c0 0 0.1 0 0.3 0l0 0c0.1 0 0.2 0 0.3 0l0 0c0.1 0 0.2 0 0.4 0l0 0c0.8-0.1 1.8-0.3 2.8-0.8l0 0c1.4-0.7 2.6-2 2.6-4.4C60.1 46.5 55.6 46.6 55.6 46.6zM44.4 35.4c0.5 0 1 0.2 1 0.5s-0.4 0.5-1 0.5c-0.5 0-1-0.2-1-0.5C43.4 35.6 43.9 35.4 44.4 35.4z" fill="#007c9d" data-fill-palette-color="accent"></path></svg></g></svg></g></svg></g></svg></g></svg></g><defs></defs></svg><rect width="375.07953" height="223.88575" fill="none" stroke="none" visibility="hidden"></rect></g></svg></g></svg>