<?xml version="1.0" standalone="no"?>
<!DOCTYPE svg PUBLIC "-//W3C//DTD SVG 20010904//EN"
 "http://www.w3.org/TR/2001/REC-SVG-20010904/DTD/svg10.dtd">
<svg version="1.0" xmlns="http://www.w3.org/2000/svg"
 width="512.000000pt" height="512.000000pt" viewBox="0 0 512.000000 512.000000"
 preserveAspectRatio="xMidYMid meet">

<g transform="translate(0.000000,512.000000) scale(0.100000,-0.100000)"
fill="#000000" stroke="none">
<path d="M1609 5021 c-25 -25 -30 -37 -25 -59 4 -15 17 -36 29 -47 13 -11 501
-312 1086 -670 584 -357 1098 -678 1140 -712 187 -149 321 -361 389 -612 22
-85 25 -116 26 -271 l1 -175 -234 -1162 c-187 -927 -233 -1168 -225 -1190 20
-57 97 -69 129 -19 9 13 119 538 251 1197 l236 1174 1 160 c1 116 -3 184 -16
247 -20 101 -76 266 -117 348 -87 173 -261 374 -410 476 -41 28 -500 311
-1020 629 -520 318 -991 606 -1048 642 -130 81 -151 86 -193 44z"/>
<path d="M1421 4464 c-27 -34 -27 -67 2 -97 34 -38 1406 -899 1462 -919 77
-27 195 -24 285 7 82 28 99 29 152 15 78 -22 138 -102 138 -184 0 -65 -14 -93
-84 -166 -74 -78 -98 -115 -125 -198 -11 -34 -30 -76 -41 -93 -51 -71 -167
-94 -247 -50 -58 33 -81 69 -104 164 -37 149 -117 277 -221 356 -29 21 -343
223 -698 447 -691 436 -690 436 -731 385 -24 -29 -24 -73 -1 -99 9 -11 314
-208 677 -436 494 -312 672 -429 707 -466 56 -60 91 -130 116 -230 24 -94 52
-150 101 -199 146 -146 405 -128 525 36 20 26 47 83 62 127 23 68 36 88 95
151 93 98 123 164 124 270 0 71 -4 88 -33 147 -85 172 -254 237 -455 173 -92
-29 -125 -31 -192 -6 -27 10 -360 214 -740 454 -741 470 -732 465 -774 411z"/>
<path d="M753 3770 c-33 -13 -56 -55 -48 -87 14 -56 258 -283 489 -455 313
-234 684 -450 1090 -635 89 -40 161 -76 160 -80 0 -5 -19 -48 -43 -98 -52
-108 -114 -290 -136 -400 -27 -129 -30 -255 -10 -395 38 -266 -8 -607 -145
-1082 -22 -76 -40 -148 -40 -160 0 -57 58 -90 110 -63 24 12 34 29 54 93 138
438 213 899 186 1137 -22 182 -23 323 -5 420 25 135 81 293 157 443 37 74 68
144 68 156 0 36 -35 59 -210 136 -621 273 -1130 598 -1495 951 -66 64 -129
119 -140 122 -11 3 -30 2 -42 -3z"/>
<path d="M3685 2976 c-41 -18 -203 -191 -226 -240 -49 -109 13 -229 131 -255
101 -22 279 -35 319 -23 77 23 142 130 125 205 -7 36 -83 191 -121 248 -45 68
-151 99 -228 65z m91 -144 c13 -9 104 -180 104 -197 0 -30 -25 -32 -150 -16
-161 21 -163 26 -54 140 79 84 82 86 100 73z"/>
<path d="M2990 2454 c-225 -60 -320 -324 -185 -510 20 -27 50 -78 67 -112 53
-110 52 -124 -56 -764 -104 -616 -104 -604 -45 -629 38 -15 83 3 98 39 6 15
54 286 107 602 94 558 97 577 86 650 -13 92 -41 170 -84 234 -71 106 -78 120
-78 170 0 92 66 165 160 174 41 4 60 -1 117 -29 66 -32 72 -33 193 -34 141 0
175 -12 217 -74 59 -87 41 -154 -72 -271 -131 -136 -209 -272 -248 -431 -17
-67 -177 -1004 -177 -1033 0 -25 46 -66 74 -66 14 0 37 10 51 22 24 22 30 48
110 523 47 275 95 529 106 564 40 125 85 196 210 327 109 115 133 170 127 285
-5 94 -34 156 -100 221 -77 75 -149 95 -318 88 -54 -3 -73 1 -115 23 -46 24
-135 48 -174 46 -9 0 -41 -7 -71 -15z"/>
</g>
</svg>
