<?xml version="1.0" standalone="no"?>
<!DOCTYPE svg PUBLIC "-//W3C//DTD SVG 20010904//EN"
 "http://www.w3.org/TR/2001/REC-SVG-20010904/DTD/svg10.dtd">
<svg version="1.0" xmlns="http://www.w3.org/2000/svg"
 width="512.000000pt" height="512.000000pt" viewBox="0 0 512.000000 512.000000"
 preserveAspectRatio="xMidYMid meet">

<g transform="translate(0.000000,512.000000) scale(0.100000,-0.100000)"
fill="#000000" stroke="none">
<path d="M4376 4984 c-15 -42 -26 -77 -24 -79 14 -12 141 -45 147 -39 9 10 51
127 51 141 0 9 -113 53 -136 53 -6 0 -24 -34 -38 -76z"/>
<path d="M1253 4961 c-183 -212 -293 -455 -293 -648 0 -235 95 -411 267 -495
l72 -34 -91 -75 c-131 -107 -349 -336 -453 -474 -278 -368 -436 -744 -496
-1175 -20 -140 -17 -462 5 -579 71 -384 275 -702 610 -953 104 -78 271 -174
393 -227 l88 -38 3 -92 3 -91 79 0 80 0 0 133 c0 156 -5 167 -83 193 -379 125
-723 407 -886 724 -97 190 -138 350 -148 580 -15 392 95 806 314 1175 175 295
435 584 708 786 170 127 175 131 175 168 0 56 -33 77 -131 84 -220 15 -331
125 -346 342 -12 177 67 370 237 574 28 33 50 64 50 68 0 12 -93 103 -105 103
-6 0 -29 -22 -52 -49z"/>
<path d="M4251 4618 c-177 -547 -317 -1083 -375 -1435 -89 -544 -53 -718 273
-1308 412 -744 540 -1120 567 -1658 l7 -137 80 0 80 0 -7 137 c-13 259 -52
487 -126 732 -84 276 -192 515 -435 956 -329 599 -358 714 -294 1170 49 340
179 855 354 1402 36 110 65 206 65 211 0 10 -111 52 -136 52 -8 0 -30 -52 -53
-122z"/>
<path d="M1815 3349 c-619 -85 -1108 -548 -1232 -1166 -24 -122 -24 -404 0
-526 105 -524 474 -943 975 -1107 154 -50 249 -64 432 -65 256 0 437 41 656
151 400 199 684 578 771 1029 24 125 24 397 0 518 -59 293 -192 543 -402 752
-208 209 -461 344 -747 400 -99 20 -355 28 -453 14z m455 -178 c249 -57 449
-168 631 -350 154 -153 247 -303 314 -504 124 -372 65 -783 -158 -1117 -64
-96 -241 -273 -337 -337 -488 -327 -1124 -288 -1560 94 -267 235 -418 548
-436 903 -33 658 449 1237 1108 1330 98 14 340 3 438 -19z"/>
<path d="M2205 3028 c-27 -5 -86 -27 -131 -48 -188 -91 -314 -292 -314 -501 0
-181 156 -371 403 -489 54 -26 94 -51 88 -55 -6 -3 -91 30 -189 76 -97 45
-193 84 -212 86 -80 11 -163 -34 -201 -110 -17 -32 -20 -54 -17 -103 6 -100
28 -123 217 -233 89 -51 161 -94 159 -96 -2 -1 -61 6 -133 16 -212 29 -246 14
-390 -178 -94 -124 -97 -128 -183 -173 -63 -33 -89 -53 -96 -71 -18 -51 -1
-75 95 -140 114 -76 144 -89 214 -89 72 0 101 13 215 97 l94 71 87 -82 c157
-147 273 -201 429 -201 382 2 664 339 762 910 24 140 20 221 -15 318 -41 112
-105 200 -196 269 l-33 25 11 52 c24 114 8 228 -50 348 -108 226 -359 349
-614 301z m279 -186 c178 -83 271 -275 221 -457 -32 -120 -124 -232 -229 -281
-63 -29 -89 -30 -169 -3 -131 43 -296 168 -355 268 -23 40 -27 57 -27 126 0
69 5 90 32 147 40 84 97 147 172 186 78 42 122 52 213 48 61 -3 92 -11 142
-34z m366 -718 c57 -62 99 -155 106 -235 11 -122 -59 -396 -147 -573 -99 -200
-241 -319 -414 -349 -140 -24 -232 20 -409 195 -93 93 -124 118 -145 118 -19
0 -68 -31 -161 -100 -136 -102 -165 -114 -211 -90 -24 14 -24 25 1 36 12 5 67
70 123 144 56 74 113 140 127 146 20 10 71 6 265 -22 132 -18 250 -33 263 -34
13 0 34 11 47 25 22 21 25 33 25 93 0 40 -5 75 -13 86 -7 9 -125 81 -262 160
-234 133 -250 144 -250 170 0 58 19 54 229 -43 109 -50 208 -91 220 -91 11 1
66 24 121 53 87 45 101 56 111 86 9 26 20 38 46 47 77 26 181 109 233 184 15
22 33 40 40 40 7 0 31 -21 55 -46z"/>
</g>
</svg>
