<?xml version="1.0" standalone="no"?>
<!DOCTYPE svg PUBLIC "-//W3C//DTD SVG 20010904//EN"
 "http://www.w3.org/TR/2001/REC-SVG-20010904/DTD/svg10.dtd">
<svg version="1.0" xmlns="http://www.w3.org/2000/svg"
 width="2932.000000pt" height="1500.000000pt" viewBox="0 0 2932.000000 1500.000000"
 preserveAspectRatio="xMidYMid meet">

<g transform="translate(0.000000,1500.000000) scale(0.100000,-0.100000)"
fill="#000000" stroke="none">
<path d="M0 7500 l0 -7500 14660 0 14660 0 0 7500 0 7500 -14660 0 -14660 0 0
-7500z m19650 315 l0 -2675 -130 0 -130 0 0 105 0 105 25 0 25 0 0 2465 0
2465 -4790 0 -4790 0 0 -2465 0 -2465 1575 0 1575 0 0 -105 0 -105 -1680 0
-1680 0 0 2675 0 2675 5000 0 5000 0 0 -2675z m-790 812 c0 -19 -53 -98 -88
-131 -33 -31 -85 -45 -169 -46 -66 0 -67 10 -13 90 44 64 44 64 166 85 104 17
104 17 104 2z m-6280 -19 c26 -14 57 -41 75 -66 l30 -44 3 -1059 2 -1059 -205
0 -205 0 0 275 0 275 -720 0 -720 0 0 -275 0 -275 -206 0 -205 0 4 643 c4 686
5 693 58 857 125 387 440 661 848 734 58 11 208 14 636 15 l561 1 44 -22z
m892 -405 l3 -428 26 -56 c29 -61 85 -121 139 -149 75 -38 129 -42 565 -38
400 3 423 5 485 26 118 39 190 123 209 242 6 37 11 229 11 448 l0 382 206 0
206 0 -4 -442 c-5 -412 -6 -448 -26 -521 -74 -272 -291 -473 -574 -531 -46
-10 -127 -16 -203 -16 l-125 0 0 -370 0 -370 -205 0 -205 0 0 369 0 369 -152
5 c-171 5 -251 23 -366 81 -151 76 -256 180 -323 321 -73 152 -73 148 -77 653
l-3 452 205 0 205 0 3 -427z m2520 413 c43 -7 85 -20 95 -28 27 -25 86 -126
79 -136 -5 -9 -46 -8 -143 4 -52 6 -94 40 -140 111 -18 28 -33 55 -33 58 0 8
59 5 142 -9z m523 -56 c209 -28 385 -50 392 -50 10 0 13 -23 13 -85 0 -97 14
-141 56 -174 25 -20 37 -22 89 -18 l60 6 23 -39 c12 -21 22 -55 22 -75 0 -33
-2 -35 -26 -29 -18 5 -34 0 -53 -14 -26 -19 -91 -42 -119 -42 -14 0 -4 23 43
93 30 46 1 30 -36 -19 -19 -26 -48 -53 -66 -60 -37 -16 -93 -19 -93 -5 0 5 29
37 65 72 73 70 80 93 10 33 -85 -73 -106 -84 -151 -84 -24 0 -45 4 -48 9 -4 5
32 38 79 72 73 54 98 79 81 79 -3 0 -47 -27 -99 -60 -102 -66 -126 -71 -187
-40 -36 19 -53 40 -31 40 18 0 284 114 274 117 -5 2 -72 -14 -148 -37 -76 -22
-152 -40 -168 -40 -32 0 -117 44 -117 60 0 6 3 10 8 10 32 1 406 61 411 66 8
8 -169 -3 -314 -20 -127 -15 -153 -9 -207 53 l-32 36 270 5 c148 3 261 8 251
13 -10 4 -53 7 -95 7 -42 0 -155 3 -250 7 -199 7 -210 11 -269 97 -33 48 -40
66 -25 66 4 0 178 -23 387 -50z m2062 3 c-12 -21 -38 -54 -58 -74 -36 -36 -38
-37 -135 -43 -55 -3 -177 -8 -271 -12 -108 -4 -173 -10 -173 -17 0 -6 84 -8
255 -5 152 3 258 2 261 -4 8 -13 -71 -86 -101 -94 -22 -5 -294 17 -397 32 -21
3 -38 2 -38 -3 0 -5 89 -22 198 -38 108 -15 203 -31 210 -35 17 -9 -52 -57
-94 -66 -25 -5 -244 50 -328 82 -9 3 -16 2 -16 -2 0 -5 68 -36 151 -69 149
-59 151 -59 129 -77 -12 -10 -40 -23 -62 -30 -45 -13 -35 -17 -171 67 -42 26
-80 46 -83 43 -2 -3 37 -36 87 -74 l92 -68 -34 -9 c-51 -13 -96 6 -166 69 -35
30 -63 52 -63 48 0 -5 30 -39 67 -76 l67 -68 -53 0 c-48 0 -57 3 -90 38 -21
20 -45 48 -54 61 -9 14 -19 22 -23 19 -3 -4 11 -30 30 -60 30 -43 33 -54 20
-56 -30 -7 -80 8 -114 33 -24 18 -37 22 -50 15 -13 -7 -20 -5 -24 6 -11 29 -6
55 19 98 l25 43 44 -10 c36 -8 50 -7 82 9 60 30 78 71 77 176 -1 48 2 88 5 88
4 1 169 23 367 49 198 27 377 49 397 50 l37 1 -22 -37z m-1144 -117 c93 -38
129 -157 78 -251 -9 -16 -18 -43 -21 -60 l-5 -30 -125 0 -125 0 -3 30 c-2 17
-10 37 -17 45 -27 30 -40 104 -27 149 15 50 56 99 97 117 39 17 107 17 148 0z
m-1180 -79 c55 -64 55 -65 -28 -72 -41 -4 -86 -4 -100 -1 -27 7 -115 90 -115
108 0 8 34 9 108 4 105 -6 108 -7 135 -39z m2457 34 c0 -4 -25 -32 -56 -61
l-56 -53 -85 6 c-47 3 -88 8 -90 11 -3 3 11 25 32 50 26 32 45 46 68 49 63 8
187 7 187 -2z m-2313 -185 l37 -33 -68 -23 c-65 -21 -69 -22 -112 -5 -48 18
-92 50 -83 59 8 8 127 34 162 35 18 1 40 -10 64 -33z m2081 20 c35 -8 66 -17
69 -20 16 -16 -80 -66 -127 -66 -36 0 -130 29 -130 40 0 15 76 60 100 60 14
-1 53 -7 88 -14z m-1934 -129 c22 -12 40 -26 40 -32 1 -18 -97 -64 -124 -58
-30 7 -110 51 -110 61 0 9 109 50 135 51 11 0 38 -9 59 -22z m1763 1 c32 -12
61 -24 66 -28 11 -10 -89 -61 -121 -62 -28 -1 -128 50 -118 59 22 22 75 52 93
53 11 0 47 -10 80 -22z m-847 -53 l0 -35 -105 0 -105 0 0 35 0 35 105 0 105 0
0 -35z m-712 -20 c4 -4 -6 -18 -21 -31 -22 -19 -39 -24 -83 -24 -30 0 -54 4
-54 8 0 5 17 21 38 36 29 22 45 26 75 22 21 -2 42 -7 45 -11z m1342 -11 c22
-15 40 -31 40 -35 0 -5 -24 -9 -54 -9 -39 0 -60 6 -80 21 -30 24 -33 36 -8 42
39 10 64 6 102 -19z m-140 -46 c0 -12 -52 -9 -79 5 -37 19 -37 35 1 39 32 3
78 -23 78 -44z m-1074 30 c11 -17 -26 -38 -68 -38 -42 0 -46 5 -21 32 18 20
78 25 89 6z m164 2 c0 -10 -79 -34 -87 -26 -3 3 -3 12 0 21 7 17 87 22 87 5z
m720 -5 c7 -9 10 -18 7 -21 -8 -8 -87 16 -87 26 0 16 66 11 80 -5z m-313 -72
c-4 -38 -7 -121 -7 -185 l0 -118 -80 0 -80 0 0 88 c0 48 -3 131 -7 185 l-6 97
93 0 93 0 -6 -67z m-214 25 c25 -13 21 -53 -7 -76 -14 -10 -53 -25 -88 -32
-96 -19 -98 -20 -119 -53 -23 -39 -25 -95 -3 -125 36 -52 62 -57 319 -62 207
-4 245 -8 273 -23 74 -40 84 -175 19 -245 -42 -45 -77 -52 -263 -52 -144 0
-175 -3 -188 -16 -18 -17 -21 -76 -6 -104 11 -21 60 -40 101 -40 29 0 29 1 29
60 l0 60 60 0 60 0 0 -60 c0 -56 2 -60 23 -60 30 0 41 -9 66 -50 14 -23 21
-52 21 -85 0 -108 -68 -164 -196 -165 -80 0 -84 -4 -84 -68 0 -43 7 -55 38
-71 22 -12 22 -11 22 49 l0 60 45 0 45 0 0 -60 c0 -55 2 -61 28 -74 33 -17 52
-54 52 -99 0 -40 -21 -72 -61 -92 -23 -12 -29 -22 -29 -48 0 -41 -13 -60 -36
-55 -14 2 -20 13 -22 41 -3 32 -9 42 -38 59 -67 39 -93 156 -30 132 9 -4 16
-18 16 -34 0 -15 9 -35 20 -45 20 -18 20 -17 20 23 0 41 1 42 35 42 34 0 35
-1 35 -40 0 -41 7 -49 28 -28 15 15 16 53 2 79 -9 15 -22 19 -71 19 -60 0
-104 15 -128 44 -37 44 -30 169 11 213 17 18 33 23 77 24 31 1 44 4 29 6 -21
3 -28 10 -28 26 0 12 -3 39 -6 60 l-7 37 57 0 56 0 0 -57 1 -58 19 24 c22 26
25 56 10 95 l-10 26 -128 0 c-118 0 -132 2 -163 23 -18 12 -39 34 -46 47 -17
34 -16 125 2 160 29 57 42 60 245 60 165 0 188 2 217 19 39 24 51 67 29 109
-8 16 -23 33 -33 38 -10 4 -124 10 -253 13 l-235 6 -55 31 c-68 38 -100 93
-100 167 0 80 29 128 111 182 93 61 153 73 212 43z m452 -35 c38 -27 79 -63
91 -80 60 -89 27 -231 -65 -277 -24 -12 -28 -11 -58 19 l-31 33 36 23 c45 30
66 70 58 113 -9 47 -45 75 -117 92 -117 27 -152 51 -129 93 13 25 25 29 91 30
50 1 62 -3 124 -46z m-579 -423 c21 0 23 -3 14 -19 -14 -28 -12 -68 5 -95 14
-21 13 -24 -9 -45 -14 -13 -29 -20 -34 -17 -20 12 -42 76 -42 123 0 54 6 67
28 58 7 -3 25 -5 38 -5z m324 -27 c0 -21 -3 -55 -6 -76 l-7 -38 -61 3 -61 3
-3 73 -3 72 71 0 70 0 0 -37z m184 -219 c18 -47 -3 -133 -41 -166 -19 -17 -20
-17 -42 12 l-22 31 21 27 c16 20 20 35 15 58 -5 28 -2 33 22 42 38 14 40 14
47 -4z m-364 -268 c0 -17 2 -40 5 -51 4 -14 -3 -26 -21 -39 -26 -19 -27 -19
-40 -1 -8 11 -14 44 -14 75 l0 56 35 -4 c32 -4 35 -7 35 -36z m264 -182 c11
-28 6 -94 -9 -130 l-14 -35 -25 22 c-23 20 -24 23 -9 45 10 16 13 35 9 58 -5
27 -3 37 11 45 25 14 30 14 37 -5z m1164 -1331 l2 -533 50 0 50 0 0 -50 0 -50
-81 0 c-76 0 -82 2 -110 29 l-29 29 0 557 0 556 58 -3 57 -3 3 -532z m-1627
510 c22 -25 18 -102 -5 -119 -26 -19 -76 -18 -104 2 -27 19 -31 93 -6 118 21
22 97 21 115 -1z m-3301 -288 l0 -245 245 0 245 0 0 245 0 245 60 0 60 0 0
-550 0 -550 -60 0 -60 0 0 250 0 250 -245 0 -245 0 0 -250 0 -250 -65 0 -65 0
0 550 0 550 65 0 65 0 0 -245z m3700 70 l0 -115 80 0 80 0 0 -50 0 -49 -77 -3
-78 -3 0 -300 0 -300 73 -3 72 -3 0 -49 0 -50 -100 0 c-96 0 -101 1 -132 29
l-33 29 -3 326 -3 326 -60 0 -59 0 0 50 0 50 49 0 c73 0 81 13 81 124 0 51 3
96 7 99 3 4 28 7 55 7 l48 0 0 -115z m-2412 -125 c28 -12 66 -39 84 -58 141
-162 139 -530 -4 -679 -68 -70 -218 -102 -330 -69 -142 41 -228 196 -228 411
0 207 82 362 217 408 68 24 191 18 261 -13z m733 3 c24 -11 62 -36 83 -57 l39
-37 -38 -39 c-37 -38 -39 -39 -52 -20 -22 31 -95 69 -146 76 -63 9 -132 -17
-152 -56 -18 -34 -20 -99 -4 -133 16 -36 57 -55 161 -76 52 -10 113 -28 135
-40 100 -50 135 -153 97 -282 -38 -127 -178 -186 -353 -148 -54 11 -142 68
-175 112 l-21 29 38 35 38 35 53 -50 c73 -69 162 -91 239 -58 52 22 70 50 75
116 4 57 3 61 -29 93 -29 29 -47 36 -124 51 -161 32 -231 78 -256 168 -16 62
-6 150 24 201 26 43 83 83 141 98 51 13 179 3 227 -18z m795 -1 c62 -31 119
-103 146 -180 20 -58 23 -86 23 -217 0 -133 -3 -158 -24 -220 -19 -56 -35 -81
-80 -126 -66 -66 -119 -85 -212 -76 -77 7 -129 40 -159 101 -12 25 -26 46 -31
46 -5 0 -9 -97 -9 -225 l0 -226 -57 3 -58 3 -3 563 -2 562 60 0 60 0 0 -65 c0
-36 4 -65 9 -65 5 0 19 20 31 45 36 75 98 107 200 101 41 -2 80 -11 106 -24z
m1621 -8 c45 -22 65 -40 88 -78 l30 -49 3 -284 3 -283 40 0 39 0 0 -50 0 -50
-60 0 c-34 0 -74 7 -89 15 -28 14 -51 58 -51 96 0 27 -17 23 -24 -5 -17 -70
-105 -125 -196 -126 -155 0 -229 75 -230 231 0 176 100 249 342 249 l108 0 0
75 c0 124 -36 175 -135 190 -69 10 -123 -10 -176 -64 l-46 -48 -33 27 c-41 34
-36 54 32 115 64 57 120 76 220 72 60 -3 88 -10 135 -33z m-1137 -389 l0 -405
-60 0 -60 0 0 405 0 405 60 0 60 0 0 -405z"/>
<path d="M11363 8195 c-257 -66 -432 -233 -494 -472 -14 -53 -22 -126 -26
-230 l-6 -153 721 0 722 0 0 440 0 440 -412 0 c-402 -1 -416 -2 -505 -25z"/>
<path d="M17155 7950 c-8 -13 20 -24 40 -16 8 3 15 10 15 16 0 13 -47 13 -55
0z"/>
<path d="M17512 7948 c5 -15 48 -18 48 -3 0 6 -11 11 -26 13 -18 3 -25 0 -22
-10z"/>
<path d="M14790 5538 c-32 -16 -52 -36 -70 -68 -24 -43 -25 -52 -25 -225 0
-173 1 -182 25 -225 35 -63 86 -90 171 -90 91 0 144 29 179 95 24 47 25 58 25
205 0 85 -4 172 -8 193 -10 45 -60 105 -104 123 -51 22 -142 18 -193 -8z"/>
<path d="M16310 5538 c-79 -40 -85 -61 -85 -293 0 -184 2 -203 21 -235 31 -53
86 -80 164 -80 90 0 136 27 173 99 26 53 27 60 27 216 0 156 -1 163 -27 216
-36 71 -84 99 -168 99 -43 0 -74 -6 -105 -22z"/>
<path d="M17949 5198 c-56 -14 -82 -48 -87 -112 -2 -29 1 -69 7 -88 27 -83
168 -100 259 -32 49 38 62 72 62 164 l0 80 -102 -1 c-57 -1 -119 -5 -139 -11z"/>
</g>
</svg>
